# xmcd
#
# Track frame offsets: 
#        150
#        17248
#        33745
#        51316
#        68419
#        87071
#        102019
#        118245
#        135666
#        153467
#        173086
#
# Disc length: 2502 seconds
#
# Revision: 0
# Processed by: cddbd v1.5.2PL0 Copyright (c) Steve Scherf et al.
# Submitted via: ExactAudioCopy v0.99pb5
#
DISCID=8c09c40b
DTITLE=Donna Missal - This Time
DYEAR=2018
DGENRE=Rhythmic Soul
TTITLE0=Girl
TTITLE1=Driving
TTITLE2=Jupiter
TTITLE3=Metal Man
TTITLE4=Test My Patience
TTITLE5=Thrills
TTITLE6=Keep Lying
TTITLE7=Skyline
TTITLE8=Transformer
TTITLE9=This Time
TTITLE10=Don't Say Goodnight
EXTD=
EXTT0=
EXTT1=
EXTT2=
EXTT3=
EXTT4=
EXTT5=
EXTT6=
EXTT7=
EXTT8=
EXTT9=
EXTT10=
PLAYORDER=
